<svg version="1.1" id="Layer_1" xmlns="http://www.w3.org/2000/svg" xmlns:xlink="http://www.w3.org/1999/xlink" x="0px" y="0px"
	 width="100%" viewBox="0 0 220 101" enable-background="new 0 0 220 101" xml:space="preserve">
<path fill="#FD0303" opacity="1.000000" stroke="none" 
	d="
M39.000000,102.000000 
	C26.374212,102.000000 13.748425,102.000000 1.000000,102.000000 
	C1.000000,69.645866 1.000000,37.291592 1.413783,4.462653 
	C3.910101,3.449245 5.992636,2.910500 8.500809,2.321291 
	C10.921974,2.305912 12.917502,2.340998 15.004705,2.596258 
	C15.760216,2.672364 16.424049,2.528296 17.489399,2.333488 
	C19.236092,2.311735 20.581266,2.340722 22.112820,2.686420 
	C26.224247,2.794850 30.149296,2.586570 34.490456,2.327585 
	C36.579407,2.309803 38.252254,2.342726 40.099060,2.679821 
	C42.873650,2.779679 45.474274,2.575364 48.522675,2.320480 
	C51.999828,2.220599 55.029209,2.171287 58.348396,2.346480 
	C63.092133,2.047323 67.546066,1.523661 72.000000,1.000000 
	C121.588966,1.000000 171.177933,1.000000 220.883453,1.000000 
	C220.883453,34.666431 220.883453,68.333145 220.887665,101.999931 
	C211.240372,102.000000 201.588837,102.000000 191.138611,101.749153 
	C189.034790,101.333069 187.729782,101.024055 186.424591,101.023376 
	C138.864334,100.998642 91.304062,100.992958 43.743847,101.044518 
	C42.162220,101.046234 40.581268,101.667519 39.000000,102.000000 
M78.625122,70.037811 
	C79.094284,69.996635 79.563454,69.955460 80.962654,69.996094 
	C111.903595,70.406174 142.046005,66.152847 170.729233,54.041592 
	C184.324966,48.300915 197.064484,41.050564 206.348557,29.139664 
	C209.583481,24.989416 211.702576,19.739355 219.669464,21.570368 
	C218.080673,18.735399 217.433685,17.058268 216.345612,15.747208 
	C214.015121,12.939089 211.238174,10.484441 209.052551,7.577879 
	C206.830780,4.623245 204.776962,4.463029 201.988831,6.663588 
	C196.502502,10.993726 190.909668,15.188922 184.839691,18.802996 
	C181.400452,14.579948 176.804901,16.231298 172.156067,16.126272 
	C172.156067,21.846878 172.156067,27.314552 172.156067,32.714294 
	C175.776657,32.714294 178.897552,32.714294 182.033966,33.439682 
	C169.644135,45.236118 154.296249,51.569725 138.425690,56.832386 
	C119.494881,63.109829 99.839378,65.500671 79.205505,67.129150 
	C75.056625,67.729973 70.907738,68.330803 66.758858,68.931625 
	C66.793129,69.236839 66.827400,69.542046 66.861671,69.847252 
	C70.266060,69.847252 73.670448,69.847252 77.502747,69.919373 
	C77.502747,69.919373 77.934288,69.873695 78.625122,70.037811 
M84.726105,16.050879 
	C82.425179,20.682251 82.759209,30.140318 86.132317,33.850090 
	C86.597816,30.218086 86.967361,27.334812 87.486450,23.284649 
	C88.353516,26.316488 88.758514,28.386755 89.563248,30.287813 
	C90.007187,31.336546 91.122108,32.101246 91.934540,32.993988 
	C92.704910,32.048817 93.737068,31.213427 94.189377,30.134872 
	C95.045357,28.093695 95.568413,25.912897 96.636978,22.483187 
	C96.934677,27.014975 97.130821,30.000973 97.365982,33.580742 
	C100.449905,30.927483 101.052582,23.758177 99.514023,16.190767 
	C91.190056,14.612118 95.347298,23.625111 91.455391,25.764885 
	C90.795074,23.361156 90.454453,20.809490 89.357269,18.640537 
	C88.742004,17.424267 86.874557,16.841429 84.726105,16.050879 
M73.821213,29.101904 
	C75.568245,25.116930 75.768875,20.797812 72.236771,18.218027 
	C69.953316,16.550232 66.061813,16.119026 63.113811,16.574945 
	C59.575504,17.122160 57.975967,20.311466 57.879742,24.022839 
	C57.780258,27.859753 59.002785,30.897360 62.782330,32.333424 
	C66.846916,33.877792 70.509651,33.338646 73.821213,29.101904 
M141.485855,33.024567 
	C147.257004,32.330265 150.067963,29.379116 149.903564,24.187069 
	C149.747482,19.257898 146.712631,16.154360 141.872177,15.973887 
	C136.770569,15.783680 133.466263,18.432343 132.942337,23.131899 
	C132.315140,28.757788 134.723511,31.843050 141.485855,33.024567 
M143.087280,72.993835 
	C139.117142,72.559509 135.147003,72.125183 130.659241,71.634224 
	C130.659241,77.145317 130.548615,81.626076 130.746109,86.093208 
	C130.789185,87.067863 131.933243,87.993851 132.570236,88.942253 
	C133.093445,87.898102 133.849609,86.903152 134.083099,85.797798 
	C134.401901,84.288658 134.322693,82.695442 134.414108,81.138268 
	C134.829514,80.908020 135.244934,80.677773 135.660339,80.447525 
	C138.371765,83.422646 141.083191,86.397758 143.794617,89.372879 
	C144.330505,88.911636 144.866409,88.450401 145.402313,87.989159 
	C144.033676,85.467926 142.665039,82.946693 141.299667,80.431503 
	C144.581711,79.030830 145.923340,76.879677 143.087280,72.993835 
M11.840484,17.229092 
	C11.782642,21.715611 11.630100,26.204823 11.757643,30.686066 
	C11.779597,31.457436 12.992554,32.194908 13.655350,32.948040 
	C14.146855,32.209454 14.969153,31.510303 15.062860,30.724293 
	C15.275583,28.939945 15.129868,27.112867 15.129868,25.303160 
	C15.543432,25.008043 15.956998,24.712927 16.370564,24.417810 
	C19.215282,27.382196 22.060003,30.346581 24.904722,33.310966 
	C25.405186,32.858410 25.905649,32.405853 26.406113,31.953295 
	C25.026604,29.440493 23.647097,26.927692 22.923401,25.609467 
	C24.043522,22.968294 25.915295,20.635086 25.363119,19.318388 
	C24.706030,17.751511 22.070465,16.478838 20.105417,16.129744 
	C17.574913,15.680193 14.859089,16.273804 11.840484,17.229092 
M51.838314,83.392616 
	C51.962353,85.251938 52.086391,87.111252 52.210426,88.970573 
	C52.888504,89.027153 53.566578,89.083733 54.244656,89.140312 
	C54.666969,85.692085 55.089287,82.243858 55.518513,78.739235 
	C59.497845,81.712219 59.719723,88.011284 65.561661,89.134407 
	C65.561661,83.145615 65.561661,77.706047 65.561661,72.266472 
	C64.917915,72.203194 64.274178,72.139915 63.630432,72.076637 
	C63.272533,75.436096 62.914635,78.795555 62.544815,82.266914 
	C58.682079,79.631859 58.306282,73.377708 51.838646,72.997971 
	C51.838646,76.536118 51.838646,79.497826 51.838314,83.392616 
M87.131065,88.937042 
	C97.046921,89.201660 98.676979,87.689278 96.424904,79.808266 
	C94.152733,80.044586 91.852554,80.283829 89.552376,80.523064 
	C89.586594,80.929985 89.620804,81.336899 89.655014,81.743820 
	C91.058540,81.910957 92.462059,82.078102 93.865585,82.245239 
	C94.128693,82.654137 94.391800,83.063042 94.654907,83.471939 
	C93.379608,84.632927 92.003204,86.834648 90.851562,86.722771 
	C88.885948,86.531830 85.655075,85.096680 85.465843,83.813866 
	C85.052574,81.012474 85.232628,77.064056 86.939079,75.229897 
	C90.497963,71.404686 92.795082,76.115791 96.088371,77.569641 
	C95.940018,75.803535 95.489075,73.934402 94.310204,73.123451 
	C90.460762,70.475395 84.439491,71.963417 82.094917,75.812851 
	C79.337830,80.339561 81.061272,85.536545 87.131065,88.937042 
M165.648254,76.878677 
	C165.642181,78.538872 166.121155,80.415047 165.503250,81.802826 
	C164.783340,83.419685 163.103973,84.609344 161.840958,85.984383 
	C160.608932,84.542770 158.818222,83.278381 158.290131,81.613487 
	C157.667847,79.651604 158.306137,77.324074 158.066330,75.192375 
	C157.944519,74.109383 157.095108,73.108246 156.574600,72.070107 
	C155.935059,73.174911 154.905914,74.224907 154.741089,75.396484 
	C154.443436,77.512489 154.568771,79.706169 154.684067,81.858490 
	C154.964981,87.102516 157.053787,89.073097 162.096298,89.008469 
	C166.938980,88.946404 169.051849,86.718567 169.132690,81.553978 
	C169.161270,79.728127 169.348679,77.868385 169.069611,76.085793 
	C168.852524,74.699120 168.024384,73.408112 167.467804,72.074570 
	C166.861420,73.380280 166.255035,74.685982 165.648254,76.878677 
M109.660576,29.349903 
	C110.391594,30.563953 111.221344,32.869888 111.837547,32.814167 
	C115.725876,32.462570 120.656044,35.123886 123.150490,30.411343 
	C124.066109,28.681559 122.782158,25.787493 122.392876,22.509373 
	C122.392876,21.629498 122.891945,18.268429 122.312004,18.070602 
	C118.506241,16.772423 114.467506,16.157244 110.892403,15.401088 
	C110.125069,16.855112 109.847076,17.140041 109.840462,17.431137 
	C109.757538,21.081736 109.713882,24.733225 109.660576,29.349903 
M116.187881,85.454384 
	C112.049683,87.010788 110.239220,85.265900 110.147675,81.158928 
	C110.103287,79.167732 110.312248,77.152924 110.067062,75.191238 
	C109.931343,74.105385 109.095032,73.107101 108.574524,72.069344 
	C107.935005,73.173363 106.905807,74.222557 106.741081,75.393379 
	C106.443413,77.509216 106.568771,79.702698 106.683762,81.854866 
	C106.963989,87.100197 109.050949,89.071274 114.091652,89.008507 
	C118.935181,88.948181 121.054260,86.720131 121.131790,81.559639 
	C121.164192,79.401962 121.312103,77.222641 121.061127,75.094002 
	C120.936943,74.040779 120.027428,73.080147 119.473228,72.077621 
	C118.866631,73.049911 117.875664,73.966354 117.724747,75.004860 
	C117.252815,78.252541 117.098038,81.546303 116.187881,85.454384 
M34.967377,16.973366 
	C34.873783,21.433748 34.691673,25.895540 34.762806,30.353294 
	C34.776691,31.223446 35.773682,32.077908 36.317226,32.939606 
	C36.917175,32.131813 37.895081,31.384697 38.036583,30.503305 
	C38.311569,28.790455 38.117081,27.002232 38.117081,25.354862 
	C40.972073,25.354862 43.193214,25.354862 45.255489,25.354862 
	C45.674309,28.161798 46.038780,30.604506 46.403255,33.047215 
	C46.932793,33.102856 47.462330,33.158497 47.991867,33.214138 
	C48.370136,32.047756 49.012390,30.895298 49.074780,29.712257 
	C49.231586,26.738781 49.291195,23.738642 49.060097,20.774899 
	C48.935715,19.179712 48.132896,17.637424 47.636189,16.071270 
	C46.954212,17.653435 46.276527,19.237480 45.586369,20.816067 
	C45.458988,21.107430 45.281124,21.376720 45.097710,21.708355 
	C42.877701,21.708355 40.647903,21.708355 38.418106,21.708355 
	C38.680515,21.404678 38.942924,21.101004 39.205334,20.797327 
	C37.960697,19.266825 36.716057,17.736320 34.967377,16.973366 
M22.670656,78.975159 
	C22.044832,77.506012 21.419010,76.036865 20.680096,74.302238 
	C24.414116,74.033783 27.009710,73.847176 29.605305,73.660576 
	C29.573221,73.265976 29.541136,72.871376 29.509052,72.476776 
	C25.742970,72.476776 21.976885,72.476776 18.304007,72.476776 
	C18.304007,78.087242 18.304007,83.499100 18.304007,88.910950 
	C18.958782,88.999657 19.613558,89.088356 20.268333,89.177063 
	C20.735115,86.501686 21.201897,83.826309 21.662205,81.188026 
	C24.036552,81.027435 26.215561,80.880066 28.394569,80.732689 
	C28.412066,80.270699 28.429564,79.808708 28.447062,79.346718 
	C26.804262,79.228104 25.161463,79.109489 22.670656,78.975159 
M152.973572,3.998065 
	C154.108688,3.908387 155.243805,3.818709 156.378922,3.729031 
	C156.355759,3.605848 156.332611,3.482664 156.309464,3.359481 
	C134.783005,3.359481 113.256561,3.359481 91.730110,3.359481 
	C91.731155,3.572411 91.732201,3.785342 91.733246,3.998272 
	C111.855553,3.998272 131.977859,3.998272 152.973572,3.998065 
M41.150665,73.628777 
	C39.279694,71.263939 38.074253,71.875137 37.939079,74.584297 
	C37.740822,78.557724 37.776318,82.551926 37.947147,86.527184 
	C37.982441,87.348534 39.047779,88.125626 39.638374,88.923111 
	C40.207741,88.084526 41.234982,87.263626 41.268169,86.404335 
	C41.421715,82.428780 41.299015,78.442566 41.150665,73.628777 
M162.330719,25.457439 
	C162.317886,22.977983 162.430283,20.487473 162.212891,18.026081 
	C162.150909,17.324301 161.131393,16.707090 160.550964,16.051102 
	C159.998016,16.735897 159.017365,17.391197 158.967743,18.110701 
	C158.774826,20.908134 158.648468,23.750294 158.943634,26.528393 
	C159.174515,28.701460 160.064499,30.804501 160.661636,32.938660 
	C161.218597,30.763954 161.775574,28.589251 162.330719,25.457439 
z"/>
<path fill="#FF0D0C" opacity="1.000000" stroke="none" 
	d="
M39.468658,102.000000 
	C40.581268,101.667519 42.162220,101.046234 43.743847,101.044518 
	C91.304062,100.992958 138.864334,100.998642 186.424591,101.023376 
	C187.729782,101.024055 189.034790,101.333069 190.669952,101.749153 
	C140.645767,102.000000 90.291542,102.000000 39.468658,102.000000 
z"/>
<path fill="#FE4E4E" opacity="1.000000" stroke="none" 
	d="
M39.925098,2.375648 
	C38.252254,2.342726 36.579407,2.309803 34.031693,2.225447 
	C29.413361,2.239245 25.669901,2.304477 21.926443,2.369710 
	C20.581266,2.340722 19.236092,2.311735 17.130173,2.246314 
	C15.883965,2.265281 15.398498,2.320683 14.913030,2.376084 
	C12.917502,2.340998 10.921974,2.305912 8.065682,2.221148 
	C5.136612,2.114314 3.068306,2.057157 1.000000,2.000000 
	C2.155258,1.666667 3.309508,1.046999 4.465927,1.042922 
	C21.998011,0.981113 39.530380,1.000000 57.537148,1.280955 
	C58.027275,1.748599 58.042931,1.935287 58.058590,2.121974 
	C55.029209,2.171287 51.999828,2.220599 48.077446,2.220015 
	C44.764660,2.238629 42.344879,2.307138 39.925098,2.375648 
z"/>
<path fill="#FF1717" opacity="1.000000" stroke="none" 
	d="
M58.348396,2.346480 
	C58.042931,1.935287 58.027275,1.748599 58.005806,1.280955 
	C62.356899,1.000000 66.713799,1.000000 71.535355,1.000000 
	C67.546066,1.523661 63.092133,2.047323 58.348396,2.346480 
z"/>
<path fill="#FF1717" opacity="1.000000" stroke="none" 
	d="
M1.000000,2.333333 
	C3.068306,2.057157 5.136612,2.114314 7.640044,2.271613 
	C5.992636,2.910500 3.910101,3.449245 1.413783,3.993995 
	C1.000000,3.555556 1.000000,3.111111 1.000000,2.333333 
z"/>
<path fill="#465883" opacity="1.000000" stroke="none" 
	d="
M80.081856,67.235374 
	C99.839378,65.500671 119.494881,63.109829 138.425690,56.832386 
	C154.296249,51.569725 169.644135,45.236118 182.163147,32.819016 
	C183.355896,31.141449 184.419434,30.084555 185.865601,29.031994 
	C187.996292,27.020212 189.744370,25.004097 192.235565,22.130943 
	C189.392883,22.130943 187.842453,22.130943 185.996002,21.982882 
	C185.586945,21.036526 185.473923,20.238232 185.360901,19.439938 
	C190.909668,15.188922 196.502502,10.993726 201.988831,6.663588 
	C204.776962,4.463029 206.830780,4.623245 209.052551,7.577879 
	C211.238174,10.484441 214.015121,12.939089 216.345612,15.747208 
	C217.433685,17.058268 218.080673,18.735399 219.669464,21.570368 
	C211.702576,19.739355 209.583481,24.989416 206.348557,29.139664 
	C197.064484,41.050564 184.324966,48.300915 170.729233,54.041592 
	C142.046005,66.152847 111.903595,70.406174 80.464355,69.621033 
	C80.004654,68.575768 80.043251,67.905571 80.081856,67.235374 
M200.710876,11.160755 
	C197.956802,13.442559 195.202744,15.724363 193.695908,16.972807 
	C194.208557,19.783121 195.254517,21.845390 194.632263,22.717892 
	C191.273010,27.428053 188.011444,32.409008 183.766266,36.245415 
	C174.181152,44.907555 162.790878,50.814125 150.838898,55.615021 
	C147.891495,56.798939 144.925186,57.935825 141.967575,59.094334 
	C155.621933,57.076408 168.391586,52.724415 180.390015,46.129551 
	C190.407928,40.623280 199.223755,33.755520 206.232849,24.620636 
	C208.246063,21.996824 210.787262,19.778126 213.556808,16.881691 
	C212.696259,15.799933 210.785339,13.912642 209.497192,11.667962 
	C207.047623,7.399437 204.426422,7.545051 200.710876,11.160755 
M138.123322,60.777039 
	C138.424316,60.644070 138.725311,60.511101 139.026306,60.378128 
	C138.657242,60.405254 138.288162,60.432381 138.123322,60.777039 
z"/>
<path fill="#FEE8EB" opacity="1.000000" stroke="none" 
	d="
M85.148697,16.012035 
	C86.874557,16.841429 88.742004,17.424267 89.357269,18.640537 
	C90.454453,20.809490 90.795074,23.361156 91.455391,25.764885 
	C95.347298,23.625111 91.190056,14.612118 99.514023,16.190767 
	C101.052582,23.758177 100.449905,30.927483 97.365982,33.580742 
	C97.130821,30.000973 96.934677,27.014975 96.636978,22.483187 
	C95.568413,25.912897 95.045357,28.093695 94.189377,30.134872 
	C93.737068,31.213427 92.704910,32.048817 91.934540,32.993988 
	C91.122108,32.101246 90.007187,31.336546 89.563248,30.287813 
	C88.758514,28.386755 88.353516,26.316488 87.486450,23.284649 
	C86.967361,27.334812 86.597816,30.218086 86.132317,33.850090 
	C82.759209,30.140318 82.425179,20.682251 85.148697,16.012035 
z"/>
<path fill="#FEF1ED" opacity="1.000000" stroke="none" 
	d="
M73.600204,29.429226 
	C70.509651,33.338646 66.846916,33.877792 62.782330,32.333424 
	C59.002785,30.897360 57.780258,27.859753 57.879742,24.022839 
	C57.975967,20.311466 59.575504,17.122160 63.113811,16.574945 
	C66.061813,16.119026 69.953316,16.550232 72.236771,18.218027 
	C75.768875,20.797812 75.568245,25.116930 73.600204,29.429226 
M61.787647,26.139177 
	C63.632767,27.401569 65.362480,29.274134 67.374390,29.654648 
	C68.303017,29.830280 70.481026,27.255600 70.864449,25.636999 
	C71.609390,22.492374 70.763336,19.380638 66.774269,19.093412 
	C62.485790,18.784626 61.522957,21.712997 61.787647,26.139177 
z"/>
<path fill="#FEF1ED" opacity="1.000000" stroke="none" 
	d="
M141.075104,33.024422 
	C134.723511,31.843050 132.315140,28.757788 132.942337,23.131899 
	C133.466263,18.432343 136.770569,15.783680 141.872177,15.973887 
	C146.712631,16.154360 149.747482,19.257898 149.903564,24.187069 
	C150.067963,29.379116 147.257004,32.330265 141.075104,33.024422 
M144.414352,20.073809 
	C141.782135,18.273018 138.897812,18.342493 137.597153,21.139168 
	C136.708847,23.049187 137.043564,26.053003 137.950439,28.062912 
	C138.442017,29.152372 142.501358,30.035645 142.841858,29.545755 
	C144.285522,27.468687 145.007065,24.864653 145.817764,22.395796 
	C145.963348,21.952433 145.285446,21.238657 144.414352,20.073809 
z"/>
<path fill="#FEF5F5" opacity="1.000000" stroke="none" 
	d="
M143.408112,73.229958 
	C145.923340,76.879677 144.581711,79.030830 141.299667,80.431503 
	C142.665039,82.946693 144.033676,85.467926 145.402313,87.989159 
	C144.866409,88.450401 144.330505,88.911636 143.794617,89.372879 
	C141.083191,86.397758 138.371765,83.422646 135.660339,80.447525 
	C135.244934,80.677773 134.829514,80.908020 134.414108,81.138268 
	C134.322693,82.695442 134.401901,84.288658 134.083099,85.797798 
	C133.849609,86.903152 133.093445,87.898102 132.570236,88.942253 
	C131.933243,87.993851 130.789185,87.067863 130.746109,86.093208 
	C130.548615,81.626076 130.659241,77.145317 130.659241,71.634224 
	C135.147003,72.125183 139.117142,72.559509 143.408112,73.229958 
M141.042130,76.482300 
	C139.014374,75.418869 136.986603,74.355438 133.937622,72.756447 
	C134.192566,76.053726 134.299484,77.436722 134.485703,79.845207 
	C137.022858,78.849159 138.974777,78.082870 141.042130,76.482300 
z"/>
<path fill="#FEF5F5" opacity="1.000000" stroke="none" 
	d="
M12.031784,16.823601 
	C14.859089,16.273804 17.574913,15.680193 20.105417,16.129744 
	C22.070465,16.478838 24.706030,17.751511 25.363119,19.318388 
	C25.915295,20.635086 24.043522,22.968294 22.923401,25.609467 
	C23.647097,26.927692 25.026604,29.440493 26.406113,31.953295 
	C25.905649,32.405853 25.405186,32.858410 24.904722,33.310966 
	C22.060003,30.346581 19.215282,27.382196 16.370564,24.417810 
	C15.956998,24.712927 15.543432,25.008043 15.129868,25.303160 
	C15.129868,27.112867 15.275583,28.939945 15.062860,30.724293 
	C14.969153,31.510303 14.146855,32.209454 13.655350,32.948040 
	C12.992554,32.194908 11.779597,31.457436 11.757643,30.686066 
	C11.630100,26.204823 11.782642,21.715611 12.031784,16.823601 
M15.795580,22.832043 
	C16.444569,22.887886 17.226608,23.203058 17.717680,22.951111 
	C19.210566,22.185163 20.591053,21.200144 22.015308,20.300430 
	C20.638674,19.533661 19.311316,18.646221 17.863060,18.054842 
	C17.212202,17.789072 16.319719,18.115032 15.214431,18.196156 
	C15.214431,19.679523 15.214431,20.939713 15.795580,22.832043 
z"/>
<path fill="#FEEDEC" opacity="1.000000" stroke="none" 
	d="
M51.838478,82.926071 
	C51.838646,79.497826 51.838646,76.536118 51.838646,72.997971 
	C58.306282,73.377708 58.682079,79.631859 62.544815,82.266914 
	C62.914635,78.795555 63.272533,75.436096 63.630432,72.076637 
	C64.274178,72.139915 64.917915,72.203194 65.561661,72.266472 
	C65.561661,77.706047 65.561661,83.145615 65.561661,89.134407 
	C59.719723,88.011284 59.497845,81.712219 55.518513,78.739235 
	C55.089287,82.243858 54.666969,85.692085 54.244656,89.140312 
	C53.566578,89.083733 52.888504,89.027153 52.210426,88.970573 
	C52.086391,87.111252 51.962353,85.251938 51.838478,82.926071 
z"/>
<path fill="#FEEDF2" opacity="1.000000" stroke="none" 
	d="
M86.743484,88.799385 
	C81.061272,85.536545 79.337830,80.339561 82.094917,75.812851 
	C84.439491,71.963417 90.460762,70.475395 94.310204,73.123451 
	C95.489075,73.934402 95.940018,75.803535 96.088371,77.569641 
	C92.795082,76.115791 90.497963,71.404686 86.939079,75.229897 
	C85.232628,77.064056 85.052574,81.012474 85.465843,83.813866 
	C85.655075,85.096680 88.885948,86.531830 90.851562,86.722771 
	C92.003204,86.834648 93.379608,84.632927 94.654907,83.471939 
	C94.391800,83.063042 94.128693,82.654137 93.865585,82.245239 
	C92.462059,82.078102 91.058540,81.910957 89.655014,81.743820 
	C89.620804,81.336899 89.586594,80.929985 89.552376,80.523064 
	C91.852554,80.283829 94.152733,80.044586 96.424904,79.808266 
	C98.676979,87.689278 97.046921,89.201660 86.743484,88.799385 
z"/>
<path fill="#FFF7F7" opacity="1.000000" stroke="none" 
	d="
M165.648453,76.435181 
	C166.255035,74.685982 166.861420,73.380280 167.467804,72.074570 
	C168.024384,73.408112 168.852524,74.699120 169.069611,76.085793 
	C169.348679,77.868385 169.161270,79.728127 169.132690,81.553978 
	C169.051849,86.718567 166.938980,88.946404 162.096298,89.008469 
	C157.053787,89.073097 154.964981,87.102516 154.684067,81.858490 
	C154.568771,79.706169 154.443436,77.512489 154.741089,75.396484 
	C154.905914,74.224907 155.935059,73.174911 156.574615,72.070099 
	C157.095108,73.108246 157.944519,74.109383 158.066330,75.192375 
	C158.306137,77.324074 157.667847,79.651604 158.290131,81.613487 
	C158.818222,83.278381 160.608932,84.542770 161.840958,85.984383 
	C163.103973,84.609344 164.783340,83.419685 165.503250,81.802826 
	C166.121155,80.415047 165.642181,78.538872 165.648453,76.435181 
z"/>
<path fill="#FEF9F9" opacity="1.000000" stroke="none" 
	d="
M109.660370,28.867195 
	C109.713882,24.733225 109.757538,21.081736 109.840462,17.431137 
	C109.847076,17.140041 110.125069,16.855112 110.892403,15.401088 
	C114.467506,16.157244 118.506241,16.772423 122.312004,18.070602 
	C122.891945,18.268429 122.392876,21.629498 122.392876,22.509373 
	C122.782158,25.787493 124.066109,28.681559 123.150490,30.411343 
	C120.656044,35.123886 115.725876,32.462570 111.837547,32.814167 
	C111.221344,32.869888 110.391594,30.563953 109.660370,28.867195 
M113.125999,29.304100 
	C115.045235,29.754675 116.958267,30.404438 118.889671,30.464676 
	C119.221283,30.475016 120.349625,27.403517 119.841110,26.763037 
	C119.023117,25.732771 117.018311,24.922672 115.759499,25.186493 
	C114.698021,25.408957 113.984161,27.290133 113.125999,29.304100 
M113.712936,22.840542 
	C114.359039,22.901796 115.134819,23.221712 115.626602,22.975157 
	C117.027184,22.272982 118.312065,21.340014 119.642471,20.497866 
	C118.372231,19.656982 117.164642,18.684931 115.803307,18.034796 
	C115.192871,17.743267 114.274582,18.096350 113.175789,18.181826 
	C113.175789,19.648685 113.175789,20.915556 113.712936,22.840542 
z"/>
<path fill="#FFF7F7" opacity="1.000000" stroke="none" 
	d="
M116.504112,85.138290 
	C117.098038,81.546303 117.252815,78.252541 117.724747,75.004860 
	C117.875664,73.966354 118.866631,73.049911 119.473236,72.077621 
	C120.027428,73.080147 120.936943,74.040779 121.061127,75.094002 
	C121.312103,77.222641 121.164192,79.401962 121.131790,81.559639 
	C121.054260,86.720131 118.935181,88.948181 114.091652,89.008507 
	C109.050949,89.071274 106.963989,87.100197 106.683762,81.854866 
	C106.568771,79.702698 106.443413,77.509216 106.741081,75.393379 
	C106.905807,74.222557 107.935005,73.173363 108.574524,72.069344 
	C109.095032,73.107101 109.931343,74.105385 110.067062,75.191238 
	C110.312248,77.152924 110.103287,79.167732 110.147675,81.158928 
	C110.239220,85.265900 112.049683,87.010788 116.504112,85.138290 
z"/>
<path fill="#FEFAF8" opacity="1.000000" stroke="none" 
	d="
M185.482986,29.027658 
	C184.419434,30.084555 183.355896,31.141449 182.155396,32.456322 
	C178.897552,32.714294 175.776657,32.714294 172.156067,32.714294 
	C172.156067,27.314552 172.156067,21.846878 172.156067,16.126272 
	C176.804901,16.231298 181.400452,14.579948 185.100296,19.121466 
	C185.473923,20.238232 185.586945,21.036526 185.979065,22.417065 
	C185.999756,25.008757 185.741364,27.018208 185.482986,29.027658 
M175.170624,29.026945 
	C177.224335,29.017588 180.552734,29.746563 181.072708,28.848827 
	C182.240875,26.832062 182.931732,23.611307 182.076019,21.634052 
	C181.350601,19.957813 178.182083,19.338879 175.108810,17.738806 
	C175.108810,22.235344 175.108810,25.180206 175.170624,29.026945 
z"/>
<path fill="#FEFBFB" opacity="1.000000" stroke="none" 
	d="
M35.219398,16.589592 
	C36.716057,17.736320 37.960697,19.266825 39.205334,20.797327 
	C38.942924,21.101004 38.680515,21.404678 38.418106,21.708355 
	C40.647903,21.708355 42.877701,21.708355 45.097710,21.708355 
	C45.281124,21.376720 45.458988,21.107430 45.586369,20.816067 
	C46.276527,19.237480 46.954212,17.653435 47.636189,16.071270 
	C48.132896,17.637424 48.935715,19.179712 49.060097,20.774899 
	C49.291195,23.738642 49.231586,26.738781 49.074780,29.712257 
	C49.012390,30.895298 48.370136,32.047756 47.991867,33.214138 
	C47.462330,33.158497 46.932793,33.102856 46.403255,33.047215 
	C46.038780,30.604506 45.674309,28.161798 45.255489,25.354862 
	C43.193214,25.354862 40.972073,25.354862 38.117081,25.354862 
	C38.117081,27.002232 38.311569,28.790455 38.036583,30.503305 
	C37.895081,31.384697 36.917175,32.131813 36.317226,32.939606 
	C35.773682,32.077908 34.776691,31.223446 34.762806,30.353294 
	C34.691673,25.895540 34.873783,21.433748 35.219398,16.589592 
z"/>
<path fill="#FEFAF7" opacity="1.000000" stroke="none" 
	d="
M23.094660,78.983017 
	C25.161463,79.109489 26.804262,79.228104 28.447062,79.346718 
	C28.429564,79.808708 28.412066,80.270699 28.394569,80.732689 
	C26.215561,80.880066 24.036552,81.027435 21.662205,81.188026 
	C21.201897,83.826309 20.735115,86.501686 20.268333,89.177063 
	C19.613558,89.088356 18.958782,88.999657 18.304007,88.910950 
	C18.304007,83.499100 18.304007,78.087242 18.304007,72.476776 
	C21.976885,72.476776 25.742970,72.476776 29.509052,72.476776 
	C29.541136,72.871376 29.573221,73.265976 29.605305,73.660576 
	C27.009710,73.847176 24.414116,74.033783 20.680096,74.302238 
	C21.419010,76.036865 22.044832,77.506012 23.094660,78.983017 
z"/>
<path fill="#FF0D0C" opacity="1.000000" stroke="none" 
	d="
M152.536865,3.998168 
	C131.977859,3.998272 111.855553,3.998272 91.733246,3.998272 
	C91.732201,3.785342 91.731155,3.572411 91.730110,3.359481 
	C113.256561,3.359481 134.783005,3.359481 156.309464,3.359481 
	C156.332611,3.482664 156.355759,3.605848 156.378922,3.729031 
	C155.243805,3.818709 154.108688,3.908387 152.536865,3.998168 
z"/>
<path fill="#FEF4F3" opacity="1.000000" stroke="none" 
	d="
M41.212975,74.044472 
	C41.299015,78.442566 41.421715,82.428780 41.268169,86.404335 
	C41.234982,87.263626 40.207741,88.084526 39.638374,88.923111 
	C39.047779,88.125626 37.982441,87.348534 37.947147,86.527184 
	C37.776318,82.551926 37.740822,78.557724 37.939079,74.584297 
	C38.074253,71.875137 39.279694,71.263939 41.212975,74.044472 
z"/>
<path fill="#FFFAFA" opacity="1.000000" stroke="none" 
	d="
M162.331635,25.935993 
	C161.775574,28.589251 161.218597,30.763954 160.661621,32.938660 
	C160.064499,30.804501 159.174515,28.701460 158.943634,26.528393 
	C158.648468,23.750294 158.774826,20.908134 158.967743,18.110701 
	C159.017365,17.391197 159.998016,16.735897 160.550964,16.051102 
	C161.131393,16.707090 162.150909,17.324301 162.212891,18.026081 
	C162.430283,20.487473 162.317886,22.977983 162.331635,25.935993 
z"/>
<path fill="#754160" opacity="1.000000" stroke="none" 
	d="
M79.643677,67.182266 
	C80.043251,67.905571 80.004654,68.575768 79.999336,69.580124 
	C79.563454,69.955460 79.094284,69.996635 78.190155,69.848724 
	C77.496223,69.498711 77.269440,69.561249 77.074837,69.847252 
	C73.670448,69.847252 70.266060,69.847252 66.861671,69.847252 
	C66.827400,69.542046 66.793129,69.236839 66.758858,68.931625 
	C70.907738,68.330803 75.056625,67.729973 79.643677,67.182266 
z"/>
<path fill="#FF1717" opacity="1.000000" stroke="none" 
	d="
M22.112820,2.686420 
	C25.669901,2.304477 29.413361,2.239245 33.615582,2.276151 
	C30.149296,2.586570 26.224247,2.794850 22.112820,2.686420 
z"/>
<path fill="#FF1717" opacity="1.000000" stroke="none" 
	d="
M40.099060,2.679821 
	C42.344879,2.307138 44.764660,2.238629 47.629669,2.270584 
	C45.474274,2.575364 42.873650,2.779679 40.099060,2.679821 
z"/>
<path fill="#FF1717" opacity="1.000000" stroke="none" 
	d="
M15.004705,2.596258 
	C15.398498,2.320683 15.883965,2.265281 16.728657,2.297054 
	C16.424049,2.528296 15.760216,2.672364 15.004705,2.596258 
z"/>
<path fill="#465883" opacity="1.000000" stroke="none" 
	d="
M77.288788,69.883316 
	C77.269440,69.561249 77.496223,69.498711 77.844742,69.766670 
	C77.934288,69.873695 77.502747,69.919373 77.288788,69.883316 
z"/>
<path fill="#4F7FBB" opacity="1.000000" stroke="none" 
	d="
M201.012772,10.967627 
	C204.426422,7.545051 207.047623,7.399437 209.497192,11.667962 
	C210.785339,13.912642 212.696259,15.799933 213.556808,16.881691 
	C210.787262,19.778126 208.246063,21.996824 206.232849,24.620636 
	C199.223755,33.755520 190.407928,40.623280 180.390015,46.129551 
	C168.391586,52.724415 155.621933,57.076408 141.967575,59.094334 
	C144.925186,57.935825 147.891495,56.798939 150.838898,55.615021 
	C162.790878,50.814125 174.181152,44.907555 183.766266,36.245415 
	C188.011444,32.409008 191.273010,27.428053 194.632263,22.717892 
	C195.254517,21.845390 194.208557,19.783121 193.695908,16.972807 
	C195.202744,15.724363 197.956802,13.442559 201.012772,10.967627 
z"/>
<path fill="#F32414" opacity="1.000000" stroke="none" 
	d="
M185.865601,29.031994 
	C185.741364,27.018208 185.999756,25.008757 186.275085,22.565125 
	C187.842453,22.130943 189.392883,22.130943 192.235565,22.130943 
	C189.744370,25.004097 187.996292,27.020212 185.865601,29.031994 
z"/>
<path fill="#4F7FBB" opacity="1.000000" stroke="none" 
	d="
M138.021210,60.618271 
	C138.288162,60.432381 138.657242,60.405254 139.026306,60.378128 
	C138.725311,60.511101 138.424316,60.644070 138.021210,60.618271 
z"/>
<path fill="#FE0608" opacity="1.000000" stroke="none" 
	d="
M61.725281,25.724346 
	C61.522957,21.712997 62.485790,18.784626 66.774269,19.093412 
	C70.763336,19.380638 71.609390,22.492374 70.864449,25.636999 
	C70.481026,27.255600 68.303017,29.830280 67.374390,29.654648 
	C65.362480,29.274134 63.632767,27.401569 61.725281,25.724346 
z"/>
<path fill="#FE0608" opacity="1.000000" stroke="none" 
	d="
M144.701050,20.361771 
	C145.285446,21.238657 145.963348,21.952433 145.817764,22.395796 
	C145.007065,24.864653 144.285522,27.468687 142.841858,29.545755 
	C142.501358,30.035645 138.442017,29.152372 137.950439,28.062912 
	C137.043564,26.053003 136.708847,23.049187 137.597153,21.139168 
	C138.897812,18.342493 141.782135,18.273018 144.701050,20.361771 
z"/>
<path fill="#FE1006" opacity="1.000000" stroke="none" 
	d="
M140.984406,76.899445 
	C138.974777,78.082870 137.022858,78.849159 134.485703,79.845207 
	C134.299484,77.436722 134.192566,76.053726 133.937622,72.756447 
	C136.986603,74.355438 139.014374,75.418869 140.984406,76.899445 
z"/>
<path fill="#FE1006" opacity="1.000000" stroke="none" 
	d="
M15.505005,22.515972 
	C15.214431,20.939713 15.214431,19.679523 15.214431,18.196156 
	C16.319719,18.115032 17.212202,17.789072 17.863060,18.054842 
	C19.311316,18.646221 20.638674,19.533661 22.015308,20.300430 
	C20.591053,21.200144 19.210566,22.185163 17.717680,22.951111 
	C17.226608,23.203058 16.444569,22.887886 15.505005,22.515972 
z"/>
<path fill="#FE1002" opacity="1.000000" stroke="none" 
	d="
M113.121216,28.870604 
	C113.984161,27.290133 114.698021,25.408957 115.759499,25.186493 
	C117.018311,24.922672 119.023117,25.732771 119.841110,26.763037 
	C120.349625,27.403517 119.221283,30.475016 118.889671,30.464676 
	C116.958267,30.404438 115.045235,29.754675 113.121216,28.870604 
z"/>
<path fill="#FE1611" opacity="1.000000" stroke="none" 
	d="
M113.444366,22.511486 
	C113.175789,20.915556 113.175789,19.648685 113.175789,18.181826 
	C114.274582,18.096350 115.192871,17.743267 115.803307,18.034796 
	C117.164642,18.684931 118.372231,19.656982 119.642471,20.497868 
	C118.312065,21.340014 117.027184,22.272982 115.626602,22.975157 
	C115.134819,23.221712 114.359039,22.901796 113.444366,22.511486 
z"/>
<path fill="#FE110E" opacity="1.000000" stroke="none" 
	d="
M175.139709,28.576008 
	C175.108810,25.180206 175.108810,22.235344 175.108810,17.738806 
	C178.182083,19.338879 181.350601,19.957813 182.076019,21.634052 
	C182.931732,23.611307 182.240875,26.832062 181.072708,28.848827 
	C180.552734,29.746563 177.224335,29.017588 175.139709,28.576008 
z"/>
</svg>